<?xml version="1.0" encoding="utf-8"?>
<!DOCTYPE svg PUBLIC "-//W3C//DTD SVG 1.1//EN" "http://www.w3.org/Graphics/SVG/1.1/DTD/svg11.dtd">
<svg version="1.1" id="Layer_1" xmlns="http://www.w3.org/2000/svg" xmlns:xlink="http://www.w3.org/1999/xlink" x="0px" y="0px"
	 width="153.578px" height="200.295px" viewBox="0 0 153.578 200.295" enable-background="new 0 0 153.578 200.295"
	 xml:space="preserve">
<g>
	<path fill="#F5BFB0" d="M76.789,200.295c17.745,0,57.57-0.953,75.399-11.161c8.769-5.021-26.812-31.031-27.22-46.546
		c-0.381-14.49,0-35.317,0-51.65c0-14.699-12.861-32.46-48.18-32.46c-35.318,0-48.18,17.761-48.18,32.46
		c0,16.333,0.381,37.16,0,51.65c-0.408,15.515-35.989,41.525-27.22,46.546C19.219,199.342,59.043,200.295,76.789,200.295z"/>
	<rect x="41.675" y="40.513" fill="#F5BFB0" width="13.882" height="27.765"/>
	<circle fill="#F5BFB0" cx="48.616" cy="21.935" r="21.64"/>
	<circle fill="#FFFFFF" cx="48.616" cy="21.935" r="14.903"/>
	<circle fill="#1DB3C6" cx="48.616" cy="21.935" r="9.739"/>
	<circle fill="#0D3F4C" cx="48.616" cy="21.935" r="6.256"/>
	<circle fill="#FFFFFF" cx="52.133" cy="18.418" r="3.24"/>
	<path fill="#C19E99" d="M68.899,14.086C65.834,6.086,57.911,0,48.616,0S31.398,6.086,28.334,14.086H68.899z"/>
	<g>
		<rect x="97.204" y="40.513" fill="#F5BFB0" width="13.882" height="27.765"/>
		<circle fill="#F5BFB0" cx="104.145" cy="21.935" r="21.64"/>
		<circle fill="#FFFFFF" cx="104.145" cy="21.935" r="14.903"/>
		<circle fill="#1DB3C6" cx="104.145" cy="21.935" r="9.739"/>
		<circle fill="#0D3F4C" cx="104.146" cy="21.935" r="6.257"/>
		<circle fill="#FFFFFF" cx="107.661" cy="18.418" r="3.24"/>
		<path fill="#C19E99" d="M124.428,14.086C121.362,6.086,113.439,0,104.146,0c-9.295,0-17.218,6.086-20.283,14.086H124.428z"/>
	</g>
	<g>
		<g>
			<path opacity="0.5" fill="#C19E99" d="M55.89,97.112c-0.14,0.984-0.101,1.989-0.101,3.013v6.533c0,11.726,9.274,21.231,21,21.231
				c11.726,0,21-9.506,21-21.231v-6.533c0-1.023,0.039-2.027-0.102-3.013c-6.547,3.476-13.664,5.217-20.898,5.217
				S62.437,100.587,55.89,97.112z"/>
		</g>
	</g>
	<path fill="#FFFFFF" d="M84.139,107.474c0,1.804-1.463,3.267-3.267,3.267h-8.166c-1.804,0-3.267-1.463-3.267-3.267v-4.083
		c0-1.804,1.463-3.267,3.267-3.267h8.166c1.804,0,3.267,1.463,3.267,3.267V107.474z"/>
	<g>
		<g>
			<path fill="#A3827B" d="M76.789,102.329c-11.466,0-22.933-2.731-31.662-11.461c-0.638-0.638-0.638-1.672,0-2.31
				c0.637-0.638,1.672-0.638,2.31,0c8.092,8.093,18.722,10.506,29.353,10.506c10.63,0,21.26-2.413,29.354-10.506
				c0.638-0.638,1.671-0.638,2.309,0c0.639,0.638,0.639,1.672,0,2.31C99.723,99.597,88.256,102.329,76.789,102.329z"/>
		</g>
	</g>
	<g>
		<g>
			<g>
				<circle fill="#FCF0F1" cx="59.436" cy="155.585" r="10.82"/>
			</g>
			<g>
				<circle fill="#FCF0F1" cx="33.606" cy="177.53" r="5.272"/>
			</g>
			<g>
				<circle fill="#FCF0F1" cx="108.534" cy="164.535" r="10.514"/>
			</g>
			<g>
				<circle fill="#FCF0F1" cx="77.742" cy="177.838" r="7.486"/>
			</g>
			<g>
				<circle fill="#FCF0F1" cx="134.496" cy="183.554" r="5.716"/>
			</g>
			<g>
				<circle fill="#FCF0F1" cx="113.172" cy="185.825" r="2.271"/>
			</g>
			<g>
				<circle fill="#FCF0F1" cx="93.565" cy="140.65" r="4.323"/>
			</g>
		</g>
	</g>
</g>
</svg>
