<?xml version="1.0" encoding="utf-8"?>
<!DOCTYPE svg PUBLIC "-//W3C//DTD SVG 1.1//EN" "http://www.w3.org/Graphics/SVG/1.1/DTD/svg11.dtd">
<svg version="1.1" id="Layer_1" xmlns="http://www.w3.org/2000/svg" xmlns:xlink="http://www.w3.org/1999/xlink" x="0px" y="0px"
	 width="1381.271px" height="500px" viewBox="0 0 1381.271 500" enable-background="new 0 0 1381.271 500" xml:space="preserve">
<g>
	<g>
		<g>
			<g>
				<path fill="none" stroke="#7A4F4F" stroke-width="5.4409" stroke-miterlimit="10" d="M53.371,149.852
					c10.527-40.937,49.488-72.287,58.036-75.655c8.551-3.368-27.98,25.651-13.212,75.655"/>
				<g>
					<g>
						<path fill="#DF332F" d="M112.445,230.817c-22.358,0-40.548-18.189-40.548-40.547s18.19-40.547,40.548-40.547
							c22.357,0,40.547,18.189,40.547,40.547S134.803,230.817,112.445,230.817z"/>
						<path fill="#8A0001" d="M112.445,152.444c20.857,0,37.826,16.969,37.826,37.826s-16.969,37.826-37.826,37.826
							c-20.858,0-37.828-16.969-37.828-37.826S91.587,152.444,112.445,152.444 M112.445,147.003
							c-23.897,0-43.269,19.371-43.269,43.267c0,23.895,19.371,43.267,43.269,43.267c23.896,0,43.267-19.372,43.267-43.267
							C155.712,166.374,136.341,147.003,112.445,147.003L112.445,147.003z"/>
					</g>
					
						<ellipse transform="matrix(0.6691 -0.7432 0.7432 0.6691 -82.2542 155.138)" fill="#FFA4A3" cx="133.075" cy="169.931" rx="3.402" ry="6.802"/>
					<g>
						<path fill="#C62829" d="M85.953,191.112c0.196,14.377,7.579,28.564,26.492,36.984c-20.892,0-37.828-16.937-37.828-37.827
							c0-20.891,16.936-37.828,37.828-37.828C92.208,165.132,85.759,176.926,85.953,191.112z"/>
					</g>
				</g>
				<g>
					<g>
						<path fill="#DF332F" d="M43.267,230.817c-22.357,0-40.547-18.189-40.547-40.547s18.189-40.547,40.547-40.547
							c22.358,0,40.548,18.189,40.548,40.547S65.625,230.817,43.267,230.817z"/>
						<path fill="#8A0001" d="M43.267,152.444c20.858,0,37.828,16.969,37.828,37.826s-16.969,37.826-37.828,37.826
							c-20.857,0-37.826-16.969-37.826-37.826S22.41,152.444,43.267,152.444 M43.267,147.003C19.371,147.003,0,166.374,0,190.27
							c0,23.895,19.371,43.267,43.267,43.267s43.269-19.372,43.269-43.267C86.536,166.374,67.164,147.003,43.267,147.003
							L43.267,147.003z"/>
					</g>
					
						<ellipse transform="matrix(0.6691 -0.7432 0.7432 0.6691 -105.1439 103.7164)" fill="#FFA4A3" cx="63.898" cy="169.931" rx="3.402" ry="6.802"/>
				</g>
				<g>
					<path fill="#C62829" d="M16.774,191.112c0.198,14.377,7.58,28.564,26.493,36.984c-20.891,0-37.828-16.937-37.828-37.827
						c0-20.891,16.937-37.828,37.828-37.828C23.031,165.132,16.581,176.926,16.774,191.112z"/>
				</g>
			</g>
			<g>
				<path fill="#3B7F74" d="M108.292,61.082c9.284-28.646-40.652-28.758-59.213-17.037C73.093,58.482,101.247,82.824,108.292,61.082
					z"/>
				<path fill="#9FF2FD" d="M104.383,59.125c0.866-2.045-12.169-12.746-40.566-14.047C97.934,49.042,103.349,61.569,104.383,59.125z
					"/>
			</g>
			<g>
				<path fill="#3B7F74" d="M124.129,70.994C158.587,78.645,153.174,20.36,137.434,0C123.252,29.628,97.973,65.186,124.129,70.994z"
					/>
				<path fill="#9FF2FD" d="M125.978,66.215c2.483,0.783,13.524-15.617,11.889-48.9C137.028,57.569,123.011,65.279,125.978,66.215z"
					/>
			</g>
		</g>
		<g>
			<g>
				<path fill="none" stroke="#7A4F4F" stroke-width="5.4409" stroke-miterlimit="10" d="M53.371,416.315
					c10.527-40.937,49.488-72.287,58.036-75.655c8.551-3.367-27.98,25.651-13.212,75.655"/>
				<g>
					<g>
						<path fill="#DF332F" d="M112.445,497.279c-22.358,0-40.548-18.188-40.548-40.546s18.19-40.547,40.548-40.547
							c22.357,0,40.547,18.189,40.547,40.547S134.803,497.279,112.445,497.279z"/>
						<path fill="#8A0001" d="M112.445,418.906c20.857,0,37.826,16.97,37.826,37.827s-16.969,37.825-37.826,37.825
							c-20.858,0-37.828-16.968-37.828-37.825S91.587,418.906,112.445,418.906 M112.445,413.466
							c-23.897,0-43.269,19.372-43.269,43.268c0,23.895,19.371,43.267,43.269,43.267c23.896,0,43.267-19.372,43.267-43.267
							C155.712,432.838,136.341,413.466,112.445,413.466L112.445,413.466z"/>
					</g>
					
						<ellipse transform="matrix(0.6691 -0.7432 0.7432 0.6691 -280.2817 243.3005)" fill="#FFA4A3" cx="133.075" cy="436.394" rx="3.401" ry="6.802"/>
					<g>
						<path fill="#C62829" d="M85.953,457.575c0.196,14.378,7.579,28.564,26.492,36.984c-20.892,0-37.828-16.936-37.828-37.826
							c0-20.892,16.936-37.827,37.828-37.827C92.208,431.594,85.759,443.389,85.953,457.575z"/>
					</g>
				</g>
				<g>
					<g>
						<path fill="#DF332F" d="M43.267,497.279c-22.357,0-40.547-18.188-40.547-40.546s18.189-40.547,40.547-40.547
							c22.358,0,40.548,18.189,40.548,40.547S65.625,497.279,43.267,497.279z"/>
						<path fill="#8A0001" d="M43.267,418.906c20.858,0,37.828,16.97,37.828,37.827s-16.969,37.825-37.828,37.825
							c-20.857,0-37.826-16.968-37.826-37.825S22.41,418.906,43.267,418.906 M43.267,413.466C19.371,413.466,0,432.838,0,456.733
							C0,480.628,19.371,500,43.267,500s43.269-19.372,43.269-43.267C86.536,432.838,67.164,413.466,43.267,413.466L43.267,413.466z
							"/>
					</g>
					
						<ellipse transform="matrix(0.6691 -0.7431 0.7431 0.6691 -303.1594 191.8704)" fill="#FFA4A3" cx="63.898" cy="436.394" rx="3.402" ry="6.802"/>
				</g>
				<g>
					<path fill="#C62829" d="M16.774,457.575c0.198,14.378,7.58,28.564,26.493,36.984c-20.891,0-37.828-16.936-37.828-37.826
						c0-20.892,16.937-37.827,37.828-37.827C23.031,431.594,16.581,443.389,16.774,457.575z"/>
				</g>
			</g>
			<g>
				<path fill="#3B7F74" d="M108.292,327.545c9.284-28.646-40.652-28.758-59.213-17.037
					C73.093,324.945,101.247,349.287,108.292,327.545z"/>
				<path fill="#9FF2FD" d="M104.383,325.588c0.866-2.045-12.169-12.746-40.566-14.048
					C97.934,315.505,103.349,328.032,104.383,325.588z"/>
			</g>
			<g>
				<path fill="#3B7F74" d="M124.129,337.457c34.458,7.651,29.045-50.633,13.305-70.994
					C123.252,296.092,97.973,331.649,124.129,337.457z"/>
				<path fill="#9FF2FD" d="M125.978,332.678c2.483,0.784,13.524-15.616,11.889-48.9
					C137.028,324.032,123.011,331.742,125.978,332.678z"/>
			</g>
		</g>
	</g>
	<g>
		<g>
			<g>
				<path fill="none" stroke="#7A4F4F" stroke-width="5.4409" stroke-miterlimit="10" d="M311.079,149.852
					c10.526-40.937,49.486-72.287,58.037-75.655c8.549-3.368-27.982,25.651-13.214,75.655"/>
				<g>
					<g>
						<path fill="#DF332F" d="M370.152,230.817c-22.357,0-40.547-18.189-40.547-40.547s18.189-40.547,40.547-40.547
							s40.547,18.189,40.547,40.547S392.509,230.817,370.152,230.817z"/>
						<path fill="#8A0001" d="M370.152,152.444c20.857,0,37.826,16.969,37.826,37.826s-16.969,37.826-37.826,37.826
							s-37.826-16.969-37.826-37.826S349.294,152.444,370.152,152.444 M370.152,147.003c-23.896,0-43.267,19.371-43.267,43.267
							c0,23.895,19.371,43.267,43.267,43.267s43.267-19.372,43.267-43.267C413.419,166.374,394.048,147.003,370.152,147.003
							L370.152,147.003z"/>
					</g>
					
						<ellipse transform="matrix(0.669 -0.7432 0.7432 0.669 3.0398 346.688)" fill="#FFA4A3" cx="390.782" cy="169.931" rx="3.401" ry="6.801"/>
					<g>
						<path fill="#C62829" d="M343.659,191.112c0.198,14.377,7.579,28.564,26.493,36.984c-20.891,0-37.826-16.937-37.826-37.827
							c0-20.891,16.936-37.828,37.826-37.828C349.916,165.132,343.465,176.926,343.659,191.112z"/>
					</g>
				</g>
				<g>
					<g>
						<path fill="#DF332F" d="M300.975,230.817c-22.357,0-40.547-18.189-40.547-40.547s18.189-40.547,40.547-40.547
							s40.547,18.189,40.547,40.547S323.333,230.817,300.975,230.817z"/>
						<path fill="#8A0001" d="M300.975,152.444c20.857,0,37.826,16.969,37.826,37.826s-16.969,37.826-37.826,37.826
							s-37.826-16.969-37.826-37.826S280.118,152.444,300.975,152.444 M300.975,147.003c-23.896,0-43.267,19.371-43.267,43.267
							c0,23.895,19.371,43.267,43.267,43.267s43.267-19.372,43.267-43.267C344.242,166.374,324.872,147.003,300.975,147.003
							L300.975,147.003z"/>
					</g>
					
						<ellipse transform="matrix(0.669 -0.7433 0.7433 0.669 -19.8494 295.2911)" fill="#FFA4A3" cx="321.605" cy="169.931" rx="3.401" ry="6.801"/>
				</g>
				<g>
					<path fill="#C62829" d="M274.481,191.112c0.199,14.377,7.58,28.564,26.494,36.984c-20.891,0-37.828-16.937-37.828-37.827
						c0-20.891,16.937-37.828,37.828-37.828C280.739,165.132,274.288,176.926,274.481,191.112z"/>
				</g>
			</g>
			<g>
				<path fill="#3B7F74" d="M365.999,61.082c9.283-28.646-40.652-28.758-59.214-17.037C330.8,58.482,358.954,82.824,365.999,61.082z
					"/>
				<path fill="#9FF2FD" d="M362.09,59.125c0.867-2.045-12.167-12.746-40.566-14.047C355.641,49.042,361.057,61.569,362.09,59.125z"
					/>
			</g>
			<g>
				<path fill="#3B7F74" d="M381.835,70.994C416.294,78.645,410.881,20.36,395.142,0C380.96,29.628,355.681,65.186,381.835,70.994z"
					/>
				<path fill="#9FF2FD" d="M383.686,66.215c2.481,0.783,13.523-15.617,11.888-48.9C394.736,57.569,380.719,65.279,383.686,66.215z"
					/>
			</g>
		</g>
		<g>
			<g>
				<path fill="none" stroke="#7A4F4F" stroke-width="5.4409" stroke-miterlimit="10" d="M311.079,416.315
					c10.526-40.937,49.486-72.287,58.037-75.655c8.549-3.367-27.982,25.651-13.214,75.655"/>
				<g>
					<g>
						<path fill="#DF332F" d="M370.152,497.279c-22.357,0-40.547-18.188-40.547-40.546s18.189-40.547,40.547-40.547
							s40.547,18.189,40.547,40.547S392.509,497.279,370.152,497.279z"/>
						<path fill="#8A0001" d="M370.152,418.906c20.857,0,37.826,16.97,37.826,37.827s-16.969,37.825-37.826,37.825
							s-37.826-16.968-37.826-37.825S349.294,418.906,370.152,418.906 M370.152,413.466c-23.896,0-43.267,19.372-43.267,43.268
							c0,23.895,19.371,43.267,43.267,43.267s43.267-19.372,43.267-43.267C413.419,432.838,394.048,413.466,370.152,413.466
							L370.152,413.466z"/>
					</g>
					
						<ellipse transform="matrix(0.6691 -0.7432 0.7432 0.6691 -195.0063 434.8528)" fill="#FFA4A3" cx="390.782" cy="436.394" rx="3.401" ry="6.801"/>
					<g>
						<path fill="#C62829" d="M343.659,457.575c0.198,14.378,7.579,28.564,26.493,36.984c-20.891,0-37.826-16.936-37.826-37.826
							c0-20.892,16.936-37.827,37.826-37.827C349.916,431.594,343.465,443.389,343.659,457.575z"/>
					</g>
				</g>
				<g>
					<g>
						<path fill="#DF332F" d="M300.975,497.279c-22.357,0-40.547-18.188-40.547-40.546s18.189-40.547,40.547-40.547
							s40.547,18.189,40.547,40.547S323.333,497.279,300.975,497.279z"/>
						<path fill="#8A0001" d="M300.975,418.906c20.857,0,37.826,16.97,37.826,37.827s-16.969,37.825-37.826,37.825
							s-37.826-16.968-37.826-37.825S280.118,418.906,300.975,418.906 M300.975,413.466c-23.896,0-43.267,19.372-43.267,43.268
							c0,23.895,19.371,43.267,43.267,43.267s43.267-19.372,43.267-43.267C344.242,432.838,324.872,413.466,300.975,413.466
							L300.975,413.466z"/>
					</g>
					
						<ellipse transform="matrix(0.669 -0.7432 0.7432 0.669 -217.9026 383.4686)" fill="#FFA4A3" cx="321.605" cy="436.394" rx="3.401" ry="6.801"/>
				</g>
				<g>
					<path fill="#C62829" d="M274.481,457.575c0.199,14.378,7.58,28.564,26.494,36.984c-20.891,0-37.828-16.936-37.828-37.826
						c0-20.892,16.937-37.827,37.828-37.827C280.739,431.594,274.288,443.389,274.481,457.575z"/>
				</g>
			</g>
			<g>
				<path fill="#3B7F74" d="M365.999,327.545c9.283-28.646-40.652-28.758-59.214-17.037
					C330.8,324.945,358.954,349.287,365.999,327.545z"/>
				<path fill="#9FF2FD" d="M362.09,325.588c0.867-2.045-12.167-12.746-40.566-14.048
					C355.641,315.505,361.057,328.032,362.09,325.588z"/>
			</g>
			<g>
				<path fill="#3B7F74" d="M381.835,337.457c34.458,7.651,29.046-50.633,13.306-70.994
					C380.96,296.092,355.681,331.649,381.835,337.457z"/>
				<path fill="#9FF2FD" d="M383.686,332.678c2.481,0.784,13.523-15.616,11.888-48.9
					C394.736,324.032,380.719,331.742,383.686,332.678z"/>
			</g>
		</g>
	</g>
	<g>
		<g>
			<g>
				<path fill="none" stroke="#7A4F4F" stroke-width="5.4409" stroke-miterlimit="10" d="M763.514,149.852
					C774.04,108.915,813,77.565,821.551,74.197c8.549-3.368-27.98,25.651-13.214,75.655"/>
				<g>
					<g>
						<path fill="#DF332F" d="M822.587,230.817c-22.357,0-40.546-18.189-40.546-40.547s18.188-40.547,40.546-40.547
							c22.358,0,40.548,18.189,40.548,40.547S844.945,230.817,822.587,230.817z"/>
						<path fill="#8A0001" d="M822.587,152.444c20.858,0,37.827,16.969,37.827,37.826s-16.969,37.826-37.827,37.826
							c-20.857,0-37.825-16.969-37.825-37.826S801.729,152.444,822.587,152.444 M822.587,147.003
							c-23.896,0-43.267,19.371-43.267,43.267c0,23.895,19.371,43.267,43.267,43.267c23.897,0,43.269-19.372,43.269-43.267
							C865.855,166.374,846.484,147.003,822.587,147.003L822.587,147.003z"/>
					</g>
					
						<ellipse transform="matrix(0.6691 -0.7431 0.7431 0.6691 152.703 682.8462)" fill="#FFA4A3" cx="843.218" cy="169.931" rx="3.402" ry="6.801"/>
					<g>
						<path fill="#C62829" d="M796.095,191.112c0.198,14.377,7.58,28.564,26.492,36.984c-20.891,0-37.825-16.937-37.825-37.827
							c0-20.891,16.935-37.828,37.825-37.828C802.352,165.132,795.901,176.926,796.095,191.112z"/>
					</g>
				</g>
				<g>
					<g>
						<path fill="#DF332F" d="M753.41,230.817c-22.357,0-40.546-18.189-40.546-40.547s18.188-40.547,40.546-40.547
							s40.547,18.189,40.547,40.547S775.768,230.817,753.41,230.817z"/>
						<path fill="#8A0001" d="M753.41,152.444c20.857,0,37.827,16.969,37.827,37.826s-16.97,37.826-37.827,37.826
							s-37.826-16.969-37.826-37.826S732.553,152.444,753.41,152.444 M753.41,147.003c-23.896,0-43.267,19.371-43.267,43.267
							c0,23.895,19.371,43.267,43.267,43.267c23.897,0,43.268-19.372,43.268-43.267C796.678,166.374,777.308,147.003,753.41,147.003
							L753.41,147.003z"/>
					</g>
					
						<ellipse transform="matrix(0.669 -0.7433 0.7433 0.669 129.9136 631.5754)" fill="#FFA4A3" cx="774.04" cy="169.931" rx="3.401" ry="6.802"/>
				</g>
				<g>
					<path fill="#C62829" d="M726.917,191.112c0.199,14.377,7.58,28.564,26.493,36.984c-20.891,0-37.827-16.937-37.827-37.827
						c0-20.891,16.937-37.828,37.827-37.828C733.175,165.132,726.724,176.926,726.917,191.112z"/>
				</g>
			</g>
			<g>
				<path fill="#3B7F74" d="M818.434,61.082c9.284-28.646-40.65-28.758-59.212-17.037C783.236,58.482,811.39,82.824,818.434,61.082z
					"/>
				<path fill="#9FF2FD" d="M814.527,59.125c0.865-2.045-12.169-12.746-40.567-14.047C808.077,49.042,813.492,61.569,814.527,59.125
					z"/>
			</g>
			<g>
				<path fill="#3B7F74" d="M834.271,70.994C868.729,78.645,863.317,20.36,847.577,0C833.396,29.628,808.116,65.186,834.271,70.994z
					"/>
				<path fill="#9FF2FD" d="M836.121,66.215c2.482,0.783,13.524-15.617,11.889-48.9C847.171,57.569,833.154,65.279,836.121,66.215z"
					/>
			</g>
		</g>
		<g>
			<g>
				<path fill="none" stroke="#7A4F4F" stroke-width="5.4409" stroke-miterlimit="10" d="M763.514,416.315
					c10.526-40.937,49.486-72.287,58.037-75.655c8.549-3.367-27.98,25.651-13.214,75.655"/>
				<g>
					<g>
						<path fill="#DF332F" d="M822.587,497.279c-22.357,0-40.546-18.188-40.546-40.546s18.188-40.547,40.546-40.547
							c22.358,0,40.548,18.189,40.548,40.547S844.945,497.279,822.587,497.279z"/>
						<path fill="#8A0001" d="M822.587,418.906c20.858,0,37.827,16.97,37.827,37.827s-16.969,37.825-37.827,37.825
							c-20.857,0-37.825-16.968-37.825-37.825S801.729,418.906,822.587,418.906 M822.587,413.466
							c-23.896,0-43.267,19.372-43.267,43.268c0,23.895,19.371,43.267,43.267,43.267c23.897,0,43.269-19.372,43.269-43.267
							C865.855,432.838,846.484,413.466,822.587,413.466L822.587,413.466z"/>
					</g>
					
						<ellipse transform="matrix(0.6692 -0.7431 0.7431 0.6692 -45.3307 770.9647)" fill="#FFA4A3" cx="843.218" cy="436.394" rx="3.402" ry="6.801"/>
					<g>
						<path fill="#C62829" d="M796.095,457.575c0.198,14.378,7.58,28.564,26.492,36.984c-20.891,0-37.825-16.936-37.825-37.826
							c0-20.892,16.935-37.827,37.825-37.827C802.352,431.594,795.901,443.389,796.095,457.575z"/>
					</g>
				</g>
				<g>
					<g>
						<path fill="#DF332F" d="M753.41,497.279c-22.357,0-40.546-18.188-40.546-40.546s18.188-40.547,40.546-40.547
							s40.547,18.189,40.547,40.547S775.768,497.279,753.41,497.279z"/>
						<path fill="#8A0001" d="M753.41,418.906c20.857,0,37.827,16.97,37.827,37.827s-16.97,37.825-37.827,37.825
							s-37.826-16.968-37.826-37.825S732.553,418.906,753.41,418.906 M753.41,413.466c-23.896,0-43.267,19.372-43.267,43.268
							c0,23.895,19.371,43.267,43.267,43.267c23.897,0,43.268-19.372,43.268-43.267C796.678,432.838,777.308,413.466,753.41,413.466
							L753.41,413.466z"/>
					</g>
					
						<ellipse transform="matrix(0.669 -0.7432 0.7432 0.669 -68.1558 719.7383)" fill="#FFA4A3" cx="774.04" cy="436.394" rx="3.401" ry="6.802"/>
				</g>
				<g>
					<path fill="#C62829" d="M726.917,457.575c0.199,14.378,7.58,28.564,26.493,36.984c-20.891,0-37.827-16.936-37.827-37.826
						c0-20.892,16.937-37.827,37.827-37.827C733.175,431.594,726.724,443.389,726.917,457.575z"/>
				</g>
			</g>
			<g>
				<path fill="#3B7F74" d="M818.434,327.545c9.284-28.646-40.65-28.758-59.212-17.037
					C783.236,324.945,811.39,349.287,818.434,327.545z"/>
				<path fill="#9FF2FD" d="M814.527,325.588c0.865-2.045-12.169-12.746-40.567-14.048
					C808.077,315.505,813.492,328.032,814.527,325.588z"/>
			</g>
			<g>
				<path fill="#3B7F74" d="M834.271,337.457c34.458,7.651,29.047-50.633,13.307-70.994
					C833.396,296.092,808.116,331.649,834.271,337.457z"/>
				<path fill="#9FF2FD" d="M836.121,332.678c2.482,0.784,13.524-15.616,11.889-48.9
					C847.171,324.032,833.154,331.742,836.121,332.678z"/>
			</g>
		</g>
	</g>
	<g>
		<g>
			<g>
				<path fill="none" stroke="#7A4F4F" stroke-width="5.4409" stroke-miterlimit="10" d="M1021.223,149.852
					c10.525-40.937,49.485-72.287,58.036-75.655c8.55-3.368-27.981,25.651-13.215,75.655"/>
				<g>
					<g>
						<path fill="#DF332F" d="M1080.296,230.817c-22.357,0-40.547-18.189-40.547-40.547s18.189-40.547,40.547-40.547
							s40.547,18.189,40.547,40.547S1102.653,230.817,1080.296,230.817z"/>
						<path fill="#8A0001" d="M1080.296,152.444c20.857,0,37.827,16.969,37.827,37.826s-16.97,37.826-37.827,37.826
							s-37.827-16.969-37.827-37.826S1059.438,152.444,1080.296,152.444 M1080.296,147.003c-23.897,0-43.268,19.371-43.268,43.267
							c0,23.895,19.37,43.267,43.268,43.267c23.896,0,43.268-19.372,43.268-43.267
							C1123.563,166.374,1104.191,147.003,1080.296,147.003L1080.296,147.003z"/>
					</g>
					
						<ellipse transform="matrix(0.6691 -0.7432 0.7432 0.6691 238.0428 874.4501)" fill="#FFA4A3" cx="1100.926" cy="169.931" rx="3.402" ry="6.8"/>
					<g>
						<path fill="#C62829" d="M1053.803,191.112c0.198,14.377,7.58,28.564,26.493,36.984c-20.892,0-37.827-16.937-37.827-37.827
							c0-20.891,16.936-37.828,37.827-37.828C1060.059,165.132,1053.608,176.926,1053.803,191.112z"/>
					</g>
				</g>
				<g>
					<g>
						<path fill="#DF332F" d="M1011.119,230.817c-22.357,0-40.547-18.189-40.547-40.547s18.189-40.547,40.547-40.547
							s40.546,18.189,40.546,40.547S1033.477,230.817,1011.119,230.817z"/>
						<path fill="#8A0001" d="M1011.119,152.444c20.857,0,37.826,16.969,37.826,37.826s-16.969,37.826-37.826,37.826
							s-37.826-16.969-37.826-37.826S990.262,152.444,1011.119,152.444 M1011.119,147.003c-23.897,0-43.268,19.371-43.268,43.267
							c0,23.895,19.37,43.267,43.268,43.267c23.896,0,43.267-19.372,43.267-43.267
							C1054.386,166.374,1035.015,147.003,1011.119,147.003L1011.119,147.003z"/>
					</g>
					<path fill="#FFA4A3" d="M1034.024,167.403c2.791,2.515,4.034,5.684,2.778,7.08c-1.257,1.395-4.539,0.488-7.329-2.024
						c-2.794-2.515-4.036-5.685-2.779-7.079C1027.951,163.984,1031.232,164.891,1034.024,167.403z"/>
				</g>
				<g>
					<path fill="#C62829" d="M984.625,191.112c0.199,14.377,7.579,28.564,26.494,36.984c-20.892,0-37.828-16.937-37.828-37.827
						c0-20.891,16.937-37.828,37.828-37.828C990.882,165.132,984.432,176.926,984.625,191.112z"/>
				</g>
			</g>
			<g>
				<path fill="#3B7F74" d="M1076.142,61.082c9.283-28.646-40.651-28.758-59.213-17.037
					C1040.943,58.482,1069.097,82.824,1076.142,61.082z"/>
				<path fill="#9FF2FD" d="M1072.234,59.125c0.865-2.045-12.169-12.746-40.566-14.047
					C1065.786,49.042,1071.2,61.569,1072.234,59.125z"/>
			</g>
			<g>
				<path fill="#3B7F74" d="M1091.979,70.994c34.459,7.651,29.046-50.633,13.307-70.994
					C1091.104,29.628,1065.824,65.186,1091.979,70.994z"/>
				<path fill="#9FF2FD" d="M1093.83,66.215c2.482,0.783,13.523-15.617,11.887-48.9C1104.879,57.569,1090.862,65.279,1093.83,66.215
					z"/>
			</g>
		</g>
		<g>
			<g>
				<path fill="none" stroke="#7A4F4F" stroke-width="5.4409" stroke-miterlimit="10" d="M1021.223,416.315
					c10.525-40.937,49.485-72.287,58.036-75.655c8.55-3.367-27.981,25.651-13.215,75.655"/>
				<g>
					<g>
						<path fill="#DF332F" d="M1080.296,497.279c-22.357,0-40.547-18.188-40.547-40.546s18.189-40.547,40.547-40.547
							s40.547,18.189,40.547,40.547S1102.653,497.279,1080.296,497.279z"/>
						<path fill="#8A0001" d="M1080.296,418.906c20.857,0,37.827,16.97,37.827,37.827s-16.97,37.825-37.827,37.825
							s-37.827-16.968-37.827-37.825S1059.438,418.906,1080.296,418.906 M1080.296,413.466c-23.897,0-43.268,19.372-43.268,43.268
							c0,23.895,19.37,43.267,43.268,43.267c23.896,0,43.268-19.372,43.268-43.267
							C1123.563,432.838,1104.191,413.466,1080.296,413.466L1080.296,413.466z"/>
					</g>
					
						<ellipse transform="matrix(0.6691 -0.7432 0.7432 0.6691 39.9808 962.5815)" fill="#FFA4A3" cx="1100.926" cy="436.394" rx="3.401" ry="6.801"/>
					<g>
						<path fill="#C62829" d="M1053.803,457.575c0.198,14.378,7.58,28.564,26.493,36.984c-20.892,0-37.827-16.936-37.827-37.826
							c0-20.892,16.936-37.827,37.827-37.827C1060.059,431.594,1053.608,443.389,1053.803,457.575z"/>
					</g>
				</g>
				<g>
					<g>
						<path fill="#DF332F" d="M1011.119,497.279c-22.357,0-40.547-18.188-40.547-40.546s18.189-40.547,40.547-40.547
							s40.546,18.189,40.546,40.547S1033.477,497.279,1011.119,497.279z"/>
						<path fill="#8A0001" d="M1011.119,418.906c20.857,0,37.826,16.97,37.826,37.827s-16.969,37.825-37.826,37.825
							s-37.826-16.968-37.826-37.825S990.262,418.906,1011.119,418.906 M1011.119,413.466c-23.897,0-43.268,19.372-43.268,43.268
							c0,23.895,19.37,43.267,43.268,43.267c23.896,0,43.267-19.372,43.267-43.267
							C1054.386,432.838,1035.015,413.466,1011.119,413.466L1011.119,413.466z"/>
					</g>
					<path fill="#FFA4A3" d="M1034.024,433.866c2.791,2.515,4.034,5.685,2.778,7.08c-1.257,1.395-4.539,0.488-7.329-2.024
						c-2.794-2.515-4.036-5.684-2.779-7.079S1031.232,431.354,1034.024,433.866z"/>
				</g>
				<g>
					<path fill="#C62829" d="M984.625,457.575c0.199,14.378,7.579,28.564,26.494,36.984c-20.892,0-37.828-16.936-37.828-37.826
						c0-20.892,16.937-37.827,37.828-37.827C990.882,431.594,984.432,443.389,984.625,457.575z"/>
				</g>
			</g>
			<g>
				<path fill="#3B7F74" d="M1076.142,327.545c9.283-28.646-40.651-28.758-59.213-17.037
					C1040.943,324.945,1069.097,349.287,1076.142,327.545z"/>
				<path fill="#9FF2FD" d="M1072.234,325.588c0.865-2.045-12.169-12.746-40.566-14.048
					C1065.786,315.505,1071.2,328.032,1072.234,325.588z"/>
			</g>
			<g>
				<path fill="#3B7F74" d="M1091.979,337.457c34.459,7.651,29.046-50.633,13.307-70.994
					C1091.104,296.092,1065.824,331.649,1091.979,337.457z"/>
				<path fill="#9FF2FD" d="M1093.83,332.678c2.482,0.784,13.523-15.616,11.887-48.9
					C1104.879,324.032,1090.862,331.742,1093.83,332.678z"/>
			</g>
		</g>
	</g>
	<g>
		<g>
			<g>
				<path fill="none" stroke="#7A4F4F" stroke-width="5.4409" stroke-miterlimit="10" d="M1278.931,149.852
					c10.524-40.937,49.485-72.287,58.035-75.655s-27.979,25.651-13.213,75.655"/>
				<g>
					<g>
						<path fill="#DF332F" d="M1338.003,230.817c-22.357,0-40.547-18.189-40.547-40.547s18.189-40.547,40.547-40.547
							c22.358,0,40.548,18.189,40.548,40.547S1360.361,230.817,1338.003,230.817z"/>
						<path fill="#8A0001" d="M1338.003,152.444c20.858,0,37.827,16.969,37.827,37.826s-16.969,37.826-37.827,37.826
							c-20.857,0-37.827-16.969-37.827-37.826S1317.146,152.444,1338.003,152.444 M1338.003,147.003
							c-23.896,0-43.268,19.371-43.268,43.267c0,23.895,19.371,43.267,43.268,43.267c23.897,0,43.269-19.372,43.269-43.267
							C1381.271,166.374,1361.9,147.003,1338.003,147.003L1338.003,147.003z"/>
					</g>
					
						<ellipse transform="matrix(0.6691 -0.7432 0.7432 0.6691 323.3274 1065.9792)" fill="#FFA4A3" cx="1358.633" cy="169.931" rx="3.402" ry="6.801"/>
					<g>
						<path fill="#C62829" d="M1311.511,191.112c0.198,14.377,7.58,28.564,26.492,36.984c-20.891,0-37.826-16.937-37.826-37.827
							c0-20.891,16.936-37.828,37.826-37.828C1317.768,165.132,1311.316,176.926,1311.511,191.112z"/>
					</g>
				</g>
				<g>
					<g>
						<path fill="#DF332F" d="M1268.826,230.817c-22.357,0-40.547-18.189-40.547-40.547s18.189-40.547,40.547-40.547
							s40.547,18.189,40.547,40.547S1291.184,230.817,1268.826,230.817z"/>
						<path fill="#8A0001" d="M1268.826,152.444c20.857,0,37.826,16.969,37.826,37.826s-16.969,37.826-37.826,37.826
							S1231,211.127,1231,190.27S1247.969,152.444,1268.826,152.444 M1268.826,147.003c-23.896,0-43.268,19.371-43.268,43.267
							c0,23.895,19.371,43.267,43.268,43.267s43.268-19.372,43.268-43.267C1312.094,166.374,1292.723,147.003,1268.826,147.003
							L1268.826,147.003z"/>
					</g>
					
						<ellipse transform="matrix(0.6689 -0.7433 0.7433 0.6689 300.6145 1014.7778)" fill="#FFA4A3" cx="1289.457" cy="169.931" rx="3.401" ry="6.802"/>
				</g>
				<g>
					<path fill="#C62829" d="M1242.332,191.112c0.199,14.377,7.58,28.564,26.494,36.984c-20.891,0-37.827-16.937-37.827-37.827
						c0-20.891,16.937-37.828,37.827-37.828C1248.59,165.132,1242.14,176.926,1242.332,191.112z"/>
				</g>
			</g>
			<g>
				<path fill="#3B7F74" d="M1333.85,61.082c9.283-28.646-40.651-28.758-59.213-17.037
					C1298.652,58.482,1326.805,82.824,1333.85,61.082z"/>
				<path fill="#9FF2FD" d="M1329.942,59.125c0.866-2.045-12.169-12.746-40.566-14.047
					C1323.493,49.042,1328.908,61.569,1329.942,59.125z"/>
			</g>
			<g>
				<path fill="#3B7F74" d="M1349.688,70.994c34.457,7.651,29.045-50.633,13.305-70.994
					C1348.812,29.628,1323.532,65.186,1349.688,70.994z"/>
				<path fill="#9FF2FD" d="M1351.537,66.215c2.482,0.783,13.523-15.617,11.888-48.9
					C1362.587,57.569,1348.569,65.279,1351.537,66.215z"/>
			</g>
		</g>
		<g>
			<g>
				<path fill="none" stroke="#7A4F4F" stroke-width="5.4409" stroke-miterlimit="10" d="M1278.931,416.315
					c10.524-40.937,49.485-72.287,58.035-75.655c8.55-3.367-27.979,25.651-13.213,75.655"/>
				<g>
					<g>
						<path fill="#DF332F" d="M1338.003,497.279c-22.357,0-40.547-18.188-40.547-40.546s18.189-40.547,40.547-40.547
							c22.358,0,40.548,18.189,40.548,40.547S1360.361,497.279,1338.003,497.279z"/>
						<path fill="#8A0001" d="M1338.003,418.906c20.858,0,37.827,16.97,37.827,37.827s-16.969,37.825-37.827,37.825
							c-20.857,0-37.827-16.968-37.827-37.825S1317.146,418.906,1338.003,418.906 M1338.003,413.466
							c-23.896,0-43.268,19.372-43.268,43.268c0,23.895,19.371,43.267,43.268,43.267c23.897,0,43.269-19.372,43.269-43.267
							C1381.271,432.838,1361.9,413.466,1338.003,413.466L1338.003,413.466z"/>
					</g>
					
						<ellipse transform="matrix(0.6691 -0.7432 0.7432 0.6691 125.2562 1154.1023)" fill="#FFA4A3" cx="1358.633" cy="436.394" rx="3.401" ry="6.801"/>
					<g>
						<path fill="#C62829" d="M1311.511,457.575c0.198,14.378,7.58,28.564,26.492,36.984c-20.891,0-37.826-16.936-37.826-37.826
							c0-20.892,16.936-37.827,37.826-37.827C1317.768,431.594,1311.316,443.389,1311.511,457.575z"/>
					</g>
				</g>
				<g>
					<g>
						<path fill="#DF332F" d="M1268.826,497.279c-22.357,0-40.547-18.188-40.547-40.546s18.189-40.547,40.547-40.547
							s40.547,18.189,40.547,40.547S1291.184,497.279,1268.826,497.279z"/>
						<path fill="#8A0001" d="M1268.826,418.906c20.857,0,37.826,16.97,37.826,37.827s-16.969,37.825-37.826,37.825
							S1231,477.591,1231,456.733S1247.969,418.906,1268.826,418.906 M1268.826,413.466c-23.896,0-43.268,19.372-43.268,43.268
							c0,23.895,19.371,43.267,43.268,43.267s43.268-19.372,43.268-43.267C1312.094,432.838,1292.723,413.466,1268.826,413.466
							L1268.826,413.466z"/>
					</g>
					
						<ellipse transform="matrix(0.6689 -0.7433 0.7433 0.6689 102.5078 1102.9453)" fill="#FFA4A3" cx="1289.457" cy="436.394" rx="3.401" ry="6.802"/>
				</g>
				<g>
					<path fill="#C62829" d="M1242.332,457.575c0.199,14.378,7.58,28.564,26.494,36.984c-20.891,0-37.827-16.936-37.827-37.826
						c0-20.892,16.937-37.827,37.827-37.827C1248.59,431.594,1242.14,443.389,1242.332,457.575z"/>
				</g>
			</g>
			<g>
				<path fill="#3B7F74" d="M1333.85,327.545c9.283-28.646-40.651-28.758-59.213-17.037
					C1298.652,324.945,1326.805,349.287,1333.85,327.545z"/>
				<path fill="#9FF2FD" d="M1329.942,325.588c0.866-2.045-12.169-12.746-40.566-14.048
					C1323.493,315.505,1328.908,328.032,1329.942,325.588z"/>
			</g>
			<g>
				<path fill="#3B7F74" d="M1349.688,337.457c34.457,7.651,29.045-50.633,13.305-70.994
					C1348.812,296.092,1323.532,331.649,1349.688,337.457z"/>
				<path fill="#9FF2FD" d="M1351.537,332.678c2.482,0.784,13.523-15.616,11.888-48.9
					C1362.587,324.032,1348.569,331.742,1351.537,332.678z"/>
			</g>
		</g>
	</g>
</g>
</svg>
