<?xml version="1.0" encoding="utf-8"?>
<!DOCTYPE svg PUBLIC "-//W3C//DTD SVG 1.1//EN" "http://www.w3.org/Graphics/SVG/1.1/DTD/svg11.dtd">
<svg version="1.1" id="Layer_1" xmlns="http://www.w3.org/2000/svg" xmlns:xlink="http://www.w3.org/1999/xlink" x="0px" y="0px"
	 width="2560px" height="1440px" viewBox="0 0 2560 1440" enable-background="new 0 0 2560 1440" xml:space="preserve">
<linearGradient id="SVGID_1_" gradientUnits="userSpaceOnUse" x1="1280.0005" y1="1440" x2="1280.0004" y2="4.882813e-004">
	<stop  offset="0" style="stop-color:#FFFFFF"/>
	<stop  offset="1" style="stop-color:#5EDDFB"/>
</linearGradient>
<rect fill="url(#SVGID_1_)" width="2560" height="1440"/>
<path fill="#9FF2FD" d="M856.562,92.513c7.582-18.043-18.603-38.372-49.257-28.21c22.642-11.351,16.193-26.964-14.313-35.65
	C808.463,19.24,818.708,9.524,824.694,0H488.139c-14.911,11.778-18.034,33.877,12.824,46.992
	c-26.159-9.734-61.491,1.393-41.535,31.476c-80.863-109.4-185.149,3.267-88.267,30.03c-74.653,9.42-51.521,79.499-10.297,76.438
	c-66.99,66.625,95.783,102.703,89.379,27.9c1.766,16.597,32.563,21.553,37.787,14.012c-20.287,90.226,168.297,69.499,135.121-4.114
	c92.776,84.219,211.516,44.433,182.322-30.632c54.274,41.251,112.903,11.251,87.85-22.082
	C1075.583,206.982,984.195,9.929,856.562,92.513z"/>
<g>
	<path fill="#00323B" d="M174.318,897.561c-15.675,14.405-49.072,94.609-33.993,128.491c2.282,5.125,15.335-15.876,17.04-20.459
		c0.659-1.773-2.96,22.53-3.065,36.665c-0.171,23.567,26.394,6.982,37.659-10.667c20.153-31.569,26.495-88.65,24.702-101.948
		C214.278,911.966,174.318,897.561,174.318,897.561z"/>
	<g>
		<path fill="#3B897C" d="M564.913,86.404C599.278,66.322,610.201,32.567,606.862,0H0v361.05
			c8.981-7.233,17.701-16.639,25.73-28.523c-9.615,132.636,161.814,170.073,251.549,6.564
			c-15.415,131.183,240.574,119.65,179.296-26.215c9.763,11.325,48.394,3.383,44.354-24.797
			c20.255,126.619,220.488,18.564,106.834-76.409C663.157,206.688,666.713,83.875,564.913,86.404z"/>
		<path fill="#84441D" d="M89.46,1440c-18.625-66.805-65.256-251.187,8.939-348.446c30.094-39.449,75.456-73.076,171.915-83.353
			c67.782-7.223,115.942-52.921,76.837-40.084c-128.91,42.315-170.587,15.754-211.106,16.342
			c-46.716,0.68-48.232,23.756-56.93,17.791C58.088,987.829,22.791,866.493,29,758.172
			c6.424-112.034,93.484-204.535,136.848-232.672c41.442-26.89,84.853-79.579,45.319-70.09c-39.534,9.487-50.87,29.995-71.754,58.09
			c-14.847,19.974-43.925,60.905-56.574,57.743c-12.65-3.164-7.672-118.838-10.836-145.709C68.839,398.664,53.052,369.836,4,373
			c-1.401,0.09-2.733,0.987-4,2.629V1437.13c0.646,0.984,1.33,1.937,2.034,2.87H89.46z"/>
		<path fill="#58C1B2" d="M477.874,294.891c16.217-27.076-9.276-65.667-51.659-56.597c32.707-12.877,30.317-39.341-4.934-60.331
			c181.12-90.201-39.329-285.917-165.112-92.031C276.517,53.891,279.668,24.257,272.271,0h-169.61
			c-5.988,16.089-9.83,35.566-10.73,58.801C53.777,34.206-7.582,94.768,46.227,139.245C32.234,128.934,13.881,125.701,0,130.831
			V527.9c56.519,23.176,144.382-2.644,135.437-79.165c85.908,156.284,250.342,120.329,241.241-6.504
			c53.216,78.609,138.23,44.298,118.939-14.839C711.826,528.963,669.325,192.574,477.874,294.891z"/>
		<g>
			<g>
				<g>
					<path fill="#3B7F74" d="M168.027,345.219c37.24-10.249,128.979,26.334,150.338,58.916c10.617,16.19-25.368-19.922-68.69-37.623
						C205.799,348.578,154.604,348.918,168.027,345.219z"/>
				</g>
				<g>
					<path fill="#3B7F74" d="M192.162,331.328c17.851-2.693,66.05,12.573,78.918,24.65c6.383,6.006-14.873-4.688-37.66-12.046
						C210.338,336.478,185.723,332.292,192.162,331.328z"/>
				</g>
				<g>
					<path fill="#3B7F74" d="M362.196,281.113c28.854,5.436,79.291,61.051,82.997,90.434c1.845,14.603-10.673-22.074-34.348-48.629
						C386.869,296.019,351.793,279.157,362.196,281.113z"/>
				</g>
				<g>
					<path fill="#3B7F74" d="M383.315,279.685c13.091,4.123,40.91,30.642,45.665,43.185c2.354,6.234-8.591-8.166-21.696-20.801
						C394.009,289.271,378.597,278.192,383.315,279.685z"/>
				</g>
			</g>
		</g>
	</g>
	<g>
		<path fill="#58C1B2" d="M377.817,964.369c1.903-46.641,74.572-19.961,95.261,7.062
			C430.397,979.517,376.372,999.771,377.817,964.369z"/>
		<path fill="#3B7F74" d="M384.553,963.63c-0.16-3.444,24.549-11.995,66.538,1.377C399.353,952.43,384.744,967.735,384.553,963.63z"
			/>
	</g>
	<g>
		<path fill="#58C1B2" d="M364.27,997.437c22.121-18.122,39.501,26.002,35.558,46.474
			C378.748,1027.668,347.479,1011.191,364.27,997.437z"/>
		<path fill="#3B7F74" d="M367.351,1000.218c1.51-1.475,15.485,6.351,26.463,31.015
			C378.502,1002.432,365.549,1001.978,367.351,1000.218z"/>
	</g>
	<g>
		<path fill="#58C1B2" d="M217.817,1027.28c26.463-10.833,30.133,36.448,20.357,54.861
			C222.787,1060.43,197.729,1035.503,217.817,1027.28z"/>
		<path fill="#3B7F74" d="M219.945,1030.844c1.877-0.966,12.94,10.614,16.2,37.413
			C229.957,1036.232,217.708,1031.997,219.945,1030.844z"/>
	</g>
	<g>
		<path fill="#58C1B2" d="M131.822,1065.467c17.605-22.532,44.244,16.7,44.89,37.537
			C152.582,1091.785,118.458,1082.571,131.822,1065.467z"/>
		<path fill="#3B7F74" d="M135.438,1067.506c1.15-1.771,16.501,2.797,32.625,24.449
			C146.804,1067.219,134.067,1069.616,135.438,1067.506z"/>
	</g>
	<g>
		<g>
			<path fill="#00323B" d="M350.318,666.626c42.697-22.111,44.222-46.508,55.658-38.122c11.437,8.387,6.862,36.597,0,44.984
				c-6.862,8.387-21.241,12.961-24.344,15.248c-3.104,2.288-31.314-19.06-31.314-19.06"/>
			<path fill="#00323B" d="M405.977,673.488c19.822-9.15,30.497-3.05,23.637,6.099c-6.864,9.148-32.787,32.785-32.787,32.785
				l-23.635-23.464L405.977,673.488z"/>
		</g>
		<g>
			<path fill="#00323B" d="M162.286,662.161c-42.697-22.11-44.222-46.509-55.659-38.122c-11.437,8.387-6.862,36.598,0,44.984
				c6.862,8.387,21.241,12.961,24.344,15.249c3.104,2.287,31.314-19.061,31.314-19.061"/>
			<path fill="#00323B" d="M106.627,669.022c-19.822-9.15-30.497-3.05-23.636,6.099c6.864,9.15,32.786,32.785,32.786,32.785
				l23.636-23.464L106.627,669.022z"/>
		</g>
		<path fill="#00323B" d="M130.772,845.465c-19.51,9.331-61.077,61.287-42.309,83.235c2.839,3.32,19.087-10.283,21.209-13.252
			c0.82-1.149-3.688,14.595-3.817,23.75c-0.213,15.269,32.851,4.524,46.872-6.908c25.084-20.452,32.977-57.429,30.746-66.042
			C180.506,854.796,130.772,845.465,130.772,845.465z"/>
		<path fill="#00323B" d="M360.455,831.781c8.747,7.703,18.205,17.756,25.912,30.188c13.998,22.579,6.281,45.817,3.265,47.901
			c-3.016,2.085-10.12-5.127-11.463-7.622c-1.345-2.496,2.798,3.803,2.557,12.433c-1.046,37.335-22.873,40.353-32.497,45.534
			s-8.559-91.034-13.465-97.588C329.855,856.074,360.455,831.781,360.455,831.781z"/>
		<ellipse fill="#03535B" cx="253.443" cy="907.694" rx="102.454" ry="87.759"/>
		<ellipse fill="#0B7E84" cx="253.443" cy="903.229" rx="80.45" ry="68.912"/>
		<path fill="#00323B" d="M411.218,758.996c0,87.709-70.638,117.698-157.775,117.698c-87.136,0-157.775-23.292-157.775-117.698
			c0-65.002,70.639-117.697,157.775-117.697C340.58,641.299,411.218,693.994,411.218,758.996z"/>
		<g>
			<ellipse fill="#F7F7F5" cx="328.364" cy="764.096" rx="49.119" ry="58.794"/>
			<path fill="#E8E4E8" d="M377.482,764.096c0,32.471-21.991,58.794-49.119,58.794c34.979-5.955,47.202-35.652,45.77-68.282
				c-0.93-21.211-21.21-44.468-45.77-49.306C355.492,705.301,377.482,731.624,377.482,764.096z"/>
			<path fill="#15161A" d="M344.62,777.608c-1.507,14.679-12.673,25.562-24.94,24.303c-12.265-1.259-20.986-14.185-19.48-28.864
				c1.508-14.683,12.674-25.563,24.94-24.305C337.405,750.001,346.127,762.924,344.62,777.608z"/>
			
				<ellipse transform="matrix(0.9948 0.1022 -0.1022 0.9948 79.8671 -28.4169)" fill="#F7F7F5" cx="317.343" cy="765.466" rx="5.859" ry="7.014"/>
		</g>
		<g>
			
				<ellipse transform="matrix(0.9996 0.0269 -0.0269 0.9996 20.6664 -5.2424)" fill="#F7F7F5" cx="204.823" cy="764.095" rx="49.119" ry="58.793"/>
			<path fill="#E8E4E8" d="M253.924,765.419c-0.876,32.46-23.567,58.18-50.686,57.448c35.127-5.009,48.145-34.366,47.593-67.023
				c-0.357-21.228-20.004-45.022-44.424-50.521C233.525,706.054,254.799,732.96,253.924,765.419z"/>
			<path fill="#15161A" d="M243.035,778.041c-1.902,14.633-13.356,25.212-25.585,23.623c-12.228-1.59-20.597-14.744-18.695-29.38
				c1.904-14.637,13.358-25.212,25.585-23.624C236.567,750.25,244.938,763.402,243.035,778.041z"/>
			
				<ellipse transform="matrix(0.9917 0.1288 -0.1288 0.9917 100.3193 -21.4547)" fill="#F7F7F5" cx="216.096" cy="765.168" rx="5.859" ry="7.014"/>
		</g>
		<path fill="#FCDBD6" d="M243.305,792.748c11.169-9.193,34.08-13.024,48.592,0c14.513,13.023-8.93,36.095-18.605,40.561
			C263.616,837.773,231.551,802.423,243.305,792.748z"/>
		<g>
			<g>
				<path fill="#FCDBD6" d="M215.81,984.955c0,5.797-1.879,10.498-4.2,10.498c-2.319,0-6.797-4.701-6.797-10.498
					s4.479-10.497,6.797-10.497C213.931,974.458,215.81,979.158,215.81,984.955z"/>
				<path fill="#FCDBD6" d="M226.777,989.993c0,5.797-4.032,13.246-7.194,13.246c-3.16,0-5.874-7.448-5.874-13.244
					c0-5.799,2.561-10.499,5.721-10.499C222.593,979.496,226.777,984.195,226.777,989.993z"/>
			</g>
			<g>
				<path fill="#FCDBD6" d="M291.076,984.955c0,5.797,1.879,10.498,4.201,10.498c2.318,0,5.799-4.701,5.799-10.498
					s-3.481-10.497-5.799-10.497C292.955,974.458,291.076,979.158,291.076,984.955z"/>
				<path fill="#FCDBD6" d="M279.122,989.993c0,5.797,5.025,11.758,8.186,11.758c3.161,0,5.869-5.96,5.869-11.756
					c0-5.799-2.561-10.499-5.722-10.499C284.293,979.496,279.122,984.195,279.122,989.993z"/>
			</g>
		</g>
	</g>
</g>
<path fill="#AAD6AA" d="M-0.001,1194.827c38.287,9.165,83.173,22.627,135.339,40.572c267.506,92.023,254.149,4.706,548.261-17.466
	c234.38-17.669,413.774,145.298,685.401,82.533c420.322-97.124,688.228-83.341,875.237-27.646
	c84.304,25.107,257.786-108.377,315.763-72.556c0,46.829-1,205.345-1,239.735c-260.365,0-2016,0-2559,0
	C0,1366.971-0.001,1354.276-0.001,1194.827z"/>
<g>
	<path fill="#596859" d="M448.771,1246.344c37.25-24.916,124.458-33.485,164.672,9.605
		C634.216,1278.201,362.406,1304.142,448.771,1246.344z"/>
	<path fill="#596859" d="M738.332,1221.512c31.654-11.239,84.655-9.193,89.188,18.551
		C829.862,1254.383,664.954,1247.561,738.332,1221.512z"/>
	<path fill="#596859" d="M1747.7,1232.073c30.529-13.746,83.538-15.979,90.571,11.288
		C1841.906,1257.436,1676.93,1263.932,1747.7,1232.073z"/>
	<path fill="#596859" d="M624.498,1342.665c20.203-11.49,63.475-14.051,79.648,7.78
		C712.48,1361.723,577.642,1369.325,624.498,1342.665z"/>
	<path fill="#596859" d="M1620.084,1359.82c13.471-15.932,44.786-20.824,59.022,7.566
		C1686.461,1382.043,1588.854,1396.791,1620.084,1359.82z"/>
	<path fill="#596859" d="M1749.465,1330.602c9.675-6.299,25.91-5.248,27.313,10.172
		C1777.521,1348.729,1727.018,1345.212,1749.465,1330.602z"/>
	<path fill="#596859" d="M1519.673,1305.279c13.316-10.095,37.384-9.914,41.776,12.675
		C1563.71,1329.616,1488.79,1328.688,1519.673,1305.279z"/>
	<path fill="#596859" d="M147.028,1346.602c13.47-15.932,44.785-20.824,59.022,7.565
		C213.405,1368.822,115.798,1383.57,147.028,1346.602z"/>
	<path fill="#596859" d="M260.621,1375.654c11.125-11.491,34.951-14.051,43.856,7.779
		C309.067,1394.703,234.824,1402.307,260.621,1375.654z"/>
	<path fill="#90B290" d="M738.344,1217.307c31.655-11.242,84.656-9.192,89.188,18.549
		C829.875,1250.177,664.966,1243.356,738.344,1217.307z"/>
	<path fill="#90B290" d="M1747.331,1227.883c30.526-13.747,83.536-15.979,90.571,11.288
		C1841.534,1253.245,1676.563,1259.744,1747.331,1227.883z"/>
	<path fill="#90B290" d="M448.696,1240.203c37.25-24.92,124.458-33.484,164.671,9.606
		C634.141,1272.062,362.331,1298,448.696,1240.203z"/>
	<path fill="#90B290" d="M624.498,1337.762c20.203-11.503,63.475-14.059,79.648,7.78
		C712.48,1356.81,577.642,1364.412,624.498,1337.762z"/>
	<path fill="#90B290" d="M1620.084,1356.275c13.471-15.938,44.786-20.825,59.022,7.566
		C1686.461,1378.498,1588.854,1393.246,1620.084,1356.275z"/>
	<path fill="#90B290" d="M1750.408,1326.918c9.676-6.301,25.911-5.25,27.324,10.161
		C1778.461,1345.035,1727.972,1341.518,1750.408,1326.918z"/>
	<path fill="#90B290" d="M1520.39,1301.767c13.318-10.096,37.386-9.914,41.775,12.686
		C1564.438,1326.112,1489.505,1325.185,1520.39,1301.767z"/>
	<path fill="#90B290" d="M147.028,1343.057c13.47-15.939,44.785-20.826,59.022,7.565
		C213.405,1365.277,115.798,1380.025,147.028,1343.057z"/>
	<path fill="#90B290" d="M260.621,1372.102c11.125-11.494,34.951-14.051,43.856,7.788
		C309.079,1391.157,234.824,1398.762,260.621,1372.102z"/>
</g>
<g>
	<g>
		<g>
			<path fill="#84441D" d="M2107,1379.438c0,20.745-17.282,37.562-38.025,37.562h-1.529c-20.743,0-37.445-16.816-37.445-37.562
				V324.561c0-20.744,16.702-37.561,37.445-37.561h1.529c20.743,0,38.025,16.817,38.025,37.561V1379.438z"/>
			<path fill="#B96A2F" d="M2080.919,291.062c13.787,5.348,20.526,12.05,23.464,26.318c3.865,18.795,0.617,95.028,0.617,108.76
				c0,13.733,0,923.324,0,923.324s3.516,41.667-5.996,51.311c-9.516,9.638-12.922,24.444-12.922-4.783
				c0-29.225-6.921-1062.116-7.624-1074.44C2077.751,309.226,2077.687,289.809,2080.919,291.062z"/>
		</g>
		<path fill="#008098" d="M1760.459,451.942c-0.393-16.449,36.708-15.344,54.91-16.696c16.689-1.238,438.103-21.602,454.816-19.638
			c16.713,1.963,25.074,0,33.427,8.836c8.354,8.838,78.741,83.051,85.95,93.286c4.827,6.853,10.592,15.714,0,27.498
			c-8.276,9.21-90.727,95.253-105.052,95.253s-470.339,4.909-479.886,4.909s-43.27-4.052-44.166-20.621
			C1759.712,610.999,1760.936,472.059,1760.459,451.942z"/>
		<path fill="#00667B" d="M2260.342,415.474c21.729,16.921,102.953,82.62,111.612,106.187
			c9.433,25.686-60.764,93.021-90.874,101.266c-41.725,11.427-407.916,17.826-483.911,11.417
			c-23.278-1.963-33.448-13.93-36.914-21.669c-0.487,13.873,0.204,21.055,10.499,26.948c10.295,5.891,19.843,6.643,66.997,6.504
			c53.727-0.155,440.692-4.724,447.208-4.907c25.962-0.737,102.918-93.681,106.053-97.731c3.131-4.051,13.729-16.734-8.017-40.483
			c-21.744-23.749-71.174-77.576-86.147-84.447C2288.937,414.927,2280.782,414.257,2260.342,415.474z"/>
		<g>
			<g>
				<path fill="#FFFFFF" stroke="#FFFFFF" stroke-width="5.4748" stroke-miterlimit="10" d="M1922.154,479.721
					c4.431,0.844,6.646,3.06,6.646,6.646v92.089c-0.475,4.853-2.479,7.278-6.013,7.278h-1.266c-3.534,0-5.538-2.425-6.013-7.278
					v-71.519c-8.809,11.762-13.344,17.669-13.607,17.721c-1.107,0.844-2.269,1.266-3.481,1.266h-0.949
					c-4.009-0.633-6.013-2.637-6.013-6.013v-0.95c0-1.845,3.165-6.804,9.494-14.873c10.337-14.399,16.244-22.204,17.722-23.418
					C1920.466,480.037,1921.627,479.721,1922.154,479.721z"/>
				<path fill="#FFFFFF" stroke="#FFFFFF" stroke-width="5.4748" stroke-miterlimit="10" d="M2046.126,479.404h1.898
					c13.871,0,24.842,6.857,32.912,20.569c2.531,4.589,3.797,10.497,3.797,17.722c0,5.591-2.215,11.92-6.646,18.987
					c-4.009,4.589-9.283,9.23-15.822,13.924l-27.849,21.519v0.316h43.354c3.956,0,6.487,1.793,7.595,5.379v1.266
					c0,3.218-1.898,5.433-5.696,6.646h-64.24c-4.431-0.791-6.646-2.9-6.646-6.329v-0.633c0-3.059,3.48-6.751,10.443-11.076
					c1.054-1.054,16.349-13.185,45.886-36.393c4.431-6.012,6.646-11.181,6.646-15.506c0-6.962-4.009-13.501-12.025-19.62
					c-4.483-2.32-8.809-3.481-12.975-3.481c-8.439,0-15.401,4.114-20.886,12.342c-2.216,3.639-3.588,9.125-4.114,16.456
					c-1.266,2.743-3.06,4.114-5.38,4.114h-1.266c-4.009,0-6.013-3.27-6.013-9.811c0-11.655,5.59-21.677,16.772-30.063
					C2032.412,481.514,2039.164,479.404,2046.126,479.404z"/>
				<path fill="#FFFFFF" stroke="#FFFFFF" stroke-width="5.4748" stroke-miterlimit="10" d="M2208.784,479.404
					c4.43,0.791,6.646,2.901,6.646,6.329v0.633c0,2.532-2.638,6.013-7.911,10.443l-17.089,16.772
					c4.693,0.739,10.39,4.114,17.089,10.126c6.962,8.598,10.442,17.247,10.442,25.949c0,9.705-4.43,18.777-13.291,27.215
					c-7.49,5.908-15.401,8.861-23.734,8.861h-1.898c-14.082,0-25.265-7.172-33.544-21.519c-1.267-3.216-2.216-6.171-2.849-8.861
					c0.843-4.641,2.742-6.962,5.696-6.962h1.898c3.481,0,5.696,2.743,6.646,8.228c5.273,10.549,13.08,15.823,23.418,15.823
					c9.336,0,16.614-4.747,21.836-14.241c1.476-2.742,2.215-5.485,2.215-8.228c0-10.864-5.907-18.776-17.722-23.734
					c-3.112-0.633-5.538-0.949-7.278-0.949c-1.161,0-2.743,0.211-4.747,0.633c-4.009-1.108-6.013-3.111-6.013-6.013v-1.266
					c0-2.531,3.798-6.962,11.393-13.291c0-0.21,4.219-4.43,12.658-12.658h-37.975c-4.272,0-6.804-2.109-7.595-6.329v-0.316
					c0-3.797,2.425-6.013,7.278-6.646H2208.784z"/>
			</g>
		</g>
		<path fill="#F49195" d="M1762.043,766.982c-0.098-16.453,39.211-14.596,58.537-15.576c17.72-0.902,464.913-12.714,482.6-10.408
			c17.682,2.301,26.581,0.509,35.271,9.512c8.689,9.006,81.895,84.633,89.342,95.013c4.986,6.947,10.93,15.926-0.526,27.492
			c-8.951,9.038-98.011,93.394-113.201,93.104c-15.187-0.292-498.771-4.634-508.893-4.826c-10.128-0.194-45.804-4.931-46.435-21.515
			C1758.211,925.998,1762.162,787.106,1762.043,766.982z"/>
		<path fill="#B46C70" d="M2292.746,740.664c22.713,17.358,107.574,84.69,116.301,108.431c9.512,25.87-66.201,91.772-98.282,99.402
			c-44.46,10.58-432.835,9.55-513.285,1.599c-24.647-2.436-35.197-14.684-38.727-22.489c-0.78,13.861-0.187,21.132,10.614,27.232
			c10.803,6.098,20.916,7.04,70.914,7.86c56.965,0.936,467.331,4.215,474.246,4.162c27.541-0.205,110.909-91.567,114.31-95.558
			c3.396-3.986,14.876-16.456-7.726-40.638c-22.604-24.189-73.978-79.005-89.72-86.18
			C2323.07,740.693,2314.437,739.859,2292.746,740.664z"/>
		<g>
			<path fill="#FFFFFF" stroke="#FFFFFF" stroke-width="5.4748" stroke-miterlimit="10" d="M1922.313,802.013
				c3.27,0,5.696,2.11,7.279,6.329c30.01,58.069,45.516,88.345,46.519,90.823v1.898c-0.791,3.798-2.689,5.696-5.696,5.696h-1.266
				c-3.218,0-6.383-4.219-9.494-12.658l-7.911-14.24h-58.86c-2.058,3.218-6.277,11.34-12.658,24.367
				c-1.689,1.688-3.271,2.531-4.747,2.531h-1.266c-3.798-0.791-5.696-2.689-5.696-5.696v-1.266c0-1.107,2.953-7.12,8.86-18.038
				c25.316-49.789,38.607-75.527,39.874-77.215C1918.937,803.016,1920.624,802.171,1922.313,802.013z M1921.996,822.266
				l-22.784,44.938h46.202v-0.316l-23.102-44.621H1921.996z"/>
			<path fill="#FFFFFF" stroke="#FFFFFF" stroke-width="5.4748" stroke-miterlimit="10" d="M2078.246,803.357
				c12.816,0,21.887,6.541,27.215,19.62c0.843,2.743,1.266,5.696,1.266,8.861c0,7.543-3.164,14.398-9.493,20.569v0.316
				c7.805,6.119,11.709,14.03,11.709,23.734c0,12.184-5.908,21.361-17.722,27.532c-3.798,1.898-8.018,2.848-12.658,2.848h-49.684
				c-5.063-0.475-7.595-2.795-7.595-6.962l0.316-2.215v-39.874c0-2.162-0.106-3.85-0.316-5.063c0.21-1.212,0.316-2.899,0.316-5.063
				v-32.595c0-1.688-0.106-3.691-0.316-6.013c1.212-3.798,3.322-5.696,6.329-5.696H2078.246z M2034.259,816.648v29.431h43.987
				c6.962,0,11.709-3.586,14.24-10.76c0.422-0.949,0.633-2.425,0.633-4.43c0-6.329-3.587-10.865-10.76-13.607
				c-0.949-0.422-2.321-0.634-4.113-0.634H2034.259z M2034.259,859.37v34.178h39.24c10.495,0,17.247-3.481,20.253-10.443
				c0.843-2.637,1.266-4.852,1.266-6.646v-0.316c0-7.963-4.43-13.449-13.291-16.456c-1.424-0.21-2.585-0.316-3.48-0.316H2034.259z"
				/>
			<path fill="#FFFFFF" stroke="#FFFFFF" stroke-width="5.4748" stroke-miterlimit="10" d="M2207.359,802.408h1.266
				c14.662,0,27.216,5.592,37.658,16.772c0.634,0.791,0.95,1.74,0.95,2.848v1.267c0,3.112-2.11,5.116-6.329,6.013
				c-2.006,0-5.486-2.426-10.443-7.279c-7.49-4.641-15.085-6.962-22.785-6.962c-13.872,0-25.158,6.646-33.86,19.937
				c-3.588,6.277-5.38,12.923-5.38,19.938c0,13.872,6.646,25.158,19.937,33.86c6.276,3.588,12.922,5.38,19.937,5.38
				c10.443,0,19.621-4.008,27.532-12.025c1.529-1.898,3.216-2.848,5.063-2.848c4.641,0.686,6.962,2.796,6.962,6.329v0.949
				c0,4.22-6.752,9.81-20.254,16.771c-6.962,2.322-13.291,3.481-18.987,3.481h-1.266c-20.623,0-36.445-10.337-47.468-31.013
				c-2.743-7.488-4.114-14.346-4.114-20.569v-1.267c0-20.621,10.337-36.444,31.013-47.468
				C2194.278,803.781,2201.136,802.408,2207.359,802.408z"/>
		</g>
	</g>
	<g>
		<g>
			<path fill="#3B7F74" d="M2294.963,1440c55.476-21.489,121.639-40.307,213.466,0H2560v-287.343
				c-32.218-21.236-71.532-25.669-93.392,4.004c23.817-74.64-151.813-91.433-134.639,23.979
				c-61.734-14.784-133.855,29.265-102.388,98.624c-114.364-3.565-156.117,104.231-103.771,160.735H2294.963z"/>
			<path fill="#58C1B2" d="M2259.236,1279.91c87.498-34.886,241.749-3.74,285.626,16.942c21.806,10.26-48.358-15.472-115.712-19.724
				C2346.197,1271.894,2243.345,1286.243,2259.236,1279.91z"/>
			<path fill="#58C1B2" d="M2302.423,1255.563c30.447-11.652,101.854-14.795,136.507-0.284c16.937,7.077-25.759-0.058-65.467-0.577
				C2333.268,1254.174,2292.59,1259.329,2302.423,1255.563z"/>
			<path fill="#58C1B2" d="M2381.267,1187.892c26.688-10.275,89.292-12.939,119.715-0.022c14.875,6.305-22.6-0.1-57.416-0.628
				C2408.317,1186.725,2372.653,1191.202,2381.267,1187.892z"/>
			<path fill="#58C1B2" d="M2400.44,1171.942c14.065-5.077,46.883-6.927,62.718-1.145c7.729,2.835-11.847,0.174-30.08,0.25
				C2414.625,1171.138,2395.894,1173.592,2400.44,1171.942z"/>
		</g>
		<g>
			<path fill="#58C1B2" d="M1920.957,1440h595.705c12.57-55.768-34.141-123.166-130.392-121.972
				c34.853-68.784-41.145-114.118-107.203-100.445c20.507-115.086-166.941-101.445-142.991-26.391
				c-55.282-73.132-224.513,53.686-126.182,137.84C1923.064,1282.431,1869.961,1393.635,1920.957,1440z"/>
			<path fill="#36837A" d="M2354.663,1318.144c-92.557-36.451-257.5-8.08-304.646,11.811
				c-23.428,9.869,51.821-14.601,123.664-17.642C2262.163,1308.565,2371.475,1324.761,2354.663,1318.144z"/>
			<path fill="#36837A" d="M2309.115,1293.022c-32.217-12.196-108.234-16.618-145.436-2.73c-18.179,6.77,27.446,0.402,69.764,0.596
				C2276.279,1291.08,2319.521,1296.966,2309.115,1293.022z"/>
			<path fill="#36837A" d="M2226.406,1223.948c-28.238-10.753-94.889-14.541-127.551-2.17c-15.968,6.036,24.082,0.306,61.187,0.401
				C2197.607,1222.295,2235.52,1227.413,2226.406,1223.948z"/>
			<path fill="#36837A" d="M2206.28,1207.658c-14.887-5.331-49.817-7.77-66.798-2.27c-8.291,2.693,12.618,0.386,32.044,0.788
				C2191.184,1206.599,2211.095,1209.387,2206.28,1207.658z"/>
		</g>
	</g>
</g>
<path fill="#9FF2FD" d="M2560,266.498V0h-204.32c0.107,0.465,0.207,0.925,0.32,1.394c-2.285-0.722-4.584-1.171-6.865-1.394h-6.685
	c-26.623,2.622-46.369,35.5-6.25,52.553c-25.102-9.34-59.005,1.337-39.855,30.204c-77.596-104.979-177.666,3.135-84.7,28.816
	c-71.636,9.04-49.438,76.286-9.881,73.349c-64.281,63.933,91.912,98.552,85.767,26.772c1.694,15.926,31.247,20.682,36.26,13.446
	c-19.468,86.579,161.495,66.689,129.659-3.947C2488.5,253.012,2527.409,266.375,2560,266.498z"/>
</svg>
