<?xml version="1.0" encoding="utf-8"?>
<!DOCTYPE svg PUBLIC "-//W3C//DTD SVG 1.1//EN" "http://www.w3.org/Graphics/SVG/1.1/DTD/svg11.dtd">
<svg version="1.1" id="Layer_1" xmlns="http://www.w3.org/2000/svg" xmlns:xlink="http://www.w3.org/1999/xlink" x="0px" y="0px"
	 width="40px" height="39.543px" viewBox="0 0 40 39.543" enable-background="new 0 0 40 39.543" xml:space="preserve">
<g>
	<path fill="#F49195" d="M9.563,8.888c0.749,0.701,1.389,1.26,1.979,1.868c0.912,0.94,0.578,2.137-0.698,2.441
		c-3.033,0.727-6.073,1.429-9.117,2.112c-1.114,0.248-1.928-0.542-1.683-1.654c0.677-3.072,1.379-6.142,2.119-9.2
		c0.294-1.223,1.481-1.531,2.401-0.682C4.885,4.07,5.193,4.382,5.496,4.7c0.299,0.319,0.583,0.654,0.921,1.034
		c0.28-0.241,0.479-0.412,0.677-0.582c5.771-4.963,12.359-6.436,19.541-4.005C33.83,3.579,38.251,8.75,39.65,16.232
		c2.077,11.083-5.313,21.301-16.51,23.083c-8.256,1.312-16.833-3.138-20.476-10.622c-0.518-1.063-0.398-2.077,0.333-2.806
		c1.131-1.122,2.862-0.819,3.634,0.69c1.092,2.135,2.535,3.979,4.479,5.383c4.792,3.457,10.009,4.121,15.387,1.731
		c5.423-2.407,8.402-6.782,8.965-12.695c0.584-6.148-2.787-12.095-8.308-14.862c-5.61-2.815-12.27-1.939-16.938,2.225
		C10.056,8.504,9.878,8.633,9.563,8.888z"/>
	<path fill="#F49195" d="M17.365,15.954c0-1.563-0.006-3.125,0.004-4.687c0.008-1.501,0.93-2.514,2.246-2.485
		c1.307,0.025,2.158,0.993,2.16,2.478c0.005,2.549,0.019,5.099-0.012,7.646c-0.007,0.516,0.166,0.781,0.609,1.009
		c1.392,0.706,2.764,1.449,4.137,2.188c1.421,0.765,1.878,1.961,1.222,3.179c-0.637,1.182-1.883,1.465-3.26,0.737
		c-1.864-0.987-3.71-2.005-5.581-2.969c-1.073-0.551-1.56-1.374-1.532-2.576C17.392,18.968,17.365,17.46,17.365,15.954z"/>
</g>
</svg>
